<mxfile host="app.diagrams.net" modified="2021-09-20T09:22:45.880Z" agent="5.0 (Windows NT 10.0; Win64; x64) AppleWebKit/537.36 (KHTML, like Gecko) Chrome/93.0.4577.82 Safari/537.36" etag="5pnu6E7V8McuKiobiRIx" version="15.2.9" type="github">
  <diagram id="fSfGvsOD73sxXAN8lLU4" name="Page-1">
    <mxGraphModel dx="1038" dy="579" grid="1" gridSize="10" guides="1" tooltips="1" connect="1" arrows="1" fold="1" page="1" pageScale="1" pageWidth="827" pageHeight="1169" math="0" shadow="0">
      <root>
        <mxCell id="0" />
        <mxCell id="1" parent="0" />
        <mxCell id="QNtH323swJE6F_qTS4SZ-55" value="" style="endArrow=classic;html=1;" parent="1" edge="1">
          <mxGeometry width="50" height="50" relative="1" as="geometry">
            <mxPoint x="414" y="720" as="sourcePoint" />
            <mxPoint x="484" y="600" as="targetPoint" />
          </mxGeometry>
        </mxCell>
        <mxCell id="QNtH323swJE6F_qTS4SZ-56" value="" style="endArrow=classic;html=1;" parent="1" edge="1">
          <mxGeometry width="50" height="50" relative="1" as="geometry">
            <mxPoint x="420" y="509.5" as="sourcePoint" />
            <mxPoint x="490" y="509.5" as="targetPoint" />
          </mxGeometry>
        </mxCell>
        <mxCell id="QNtH323swJE6F_qTS4SZ-57" value="" style="endArrow=classic;html=1;" parent="1" edge="1">
          <mxGeometry width="50" height="50" relative="1" as="geometry">
            <mxPoint x="414" y="780" as="sourcePoint" />
            <mxPoint x="484" y="780" as="targetPoint" />
          </mxGeometry>
        </mxCell>
        <mxCell id="QNtH323swJE6F_qTS4SZ-58" value="" style="endArrow=classic;html=1;" parent="1" edge="1">
          <mxGeometry width="50" height="50" relative="1" as="geometry">
            <mxPoint x="415" y="590" as="sourcePoint" />
            <mxPoint x="485" y="760" as="targetPoint" />
          </mxGeometry>
        </mxCell>
        <mxCell id="QNtH323swJE6F_qTS4SZ-62" value="" style="endArrow=classic;html=1;" parent="1" edge="1">
          <mxGeometry width="50" height="50" relative="1" as="geometry">
            <mxPoint x="420" y="540" as="sourcePoint" />
            <mxPoint x="480" y="590" as="targetPoint" />
          </mxGeometry>
        </mxCell>
        <mxCell id="ok_T_9QN9HczkOIdoNnu-1" value="" style="shape=image;verticalLabelPosition=bottom;labelBackgroundColor=#ffffff;verticalAlign=top;aspect=fixed;imageAspect=0;image=data:image/png,iVBORw0KGgoAAAANSUhEUgAAAgAAAAIACAMAAADDpiTIAAAAyVBMVEX///8AAAAVFBUVFBUVFBUVFBUVFBUVFBUVFBUVFBUVFBUVFBUVFBUVFBUVFBUVFBUVFBX////2+/Pu9+jw8PDl89zc79Dh4eHg4ODU68TL57nT09PC463S0tLR0dHQ0dG64KGx3JXFxMWo2IrAwcGf1H62traX0HKxsrKOzGaFyFunp6ehoqJ9xE90wEOZmJmRk5OKioqCg4N7e3tydHRtbG1iZGReXV5SVVVQT1BDRUVBQEEzNjYyMTIjJiYkIyQUFxcVFBUEBwdRA8s2AAAAEXRSTlMAABAgMEBQYHCAj5+vv8/f7/4ucL8AAAt6SURBVHja7d1rexLXGgbgQg4mwRwGynSD1E5CkULKWG3du9a6I/n/P6qXSVQIaIEwKwzrfj7V1FyGee+sM6zvvhMRCZ7KN7O3d3C4VTnY27t9ZSr/bwB2ntROx1uZ09qTHQC+DWDn4GS81Tk52Jn/ygH42PDXxhGktgfAXAC7x+NIcrwLwAyAam0cUWpVAKazfzaOKmf7AEymNo4uRwB8af5PxhHmpArA3ejvdBxlTncBuKn/2TjSnO0CEHP9pwRECyDO/n92HBAtgONx1DmOHcDROPIcxQ1gbxx99mIGUD0F4LQaMYBD9R+PD+MFsKP6H7MTLYCa4t9sDcYKQAMw0QTECKDQKeD7y4uLV1flmQrGCKDINeD33ydJkjy7FfD28mL5vHgTbkU4TgD7RT7Ty+Qmv9/UP1ktL4MJ2I8SQKFDwO9va3jx8b9frAggCTkMjBBAobuAyQSAi40HcBYjgGJXgV9MtOJvVqz/Rcj14PgAFLsKeNvvf//+5g+/X6ySy4BziMMIATwt9pG+fZYkL96VZSXgaYQAoj4IMnMwJEIAqj6Z+ABUFX0y1egAOAoyPQ0AAAAAAAAAAAAAAAAAAAAAAAAAAIgBwMr79WXPBQAAAAAAAAAAAAAAAAAAAAAAAAAAAAAAAAAAAAAAAAAAAAAAAAAAAAAAAAAAAAAAAAAAAAAAAAAAAAAAAAAAAAAAAAAAAAAAAAAAAAAAAAAAAAAAAAAAAAAAAAAAAAAAAAAAAAAAAAAAAAAAAAAAAAAAAAAAAAAAAAAAAAAAAAAAAAAAAAAAAAAAAAAAAAAAAAAAAAAAAAAAAAAAAAAAAAAAAAAAAAAAAAAAAAAAAAAAAAAAAAAAAAAAAAAAAAAAAAAAAAAAAAAAAAAAAAAAAAAAAAAAAAAAAAAAAAAAAAAAAAAAAAAAAAAAAAAAAAAAAAAAAAAAAAAAAAAAAAAAAAAAAAAAAAAAAAAAAAAAAAAAAAAAAAAAAAAAAAAAAAAAAAAAAAAAAAAAAAAAAAAAAAAAAAAAAAAAAAAAAAAAAAAAAAAAAAAAAAAAAAAAAAAAANsFoJX3V//mbt4BoOQAOnmerY5n9e8FYEMA1Ad53lztWxujfFQHoOxjgGaeD1b7zn6et4wByj8IzFZsyDt53jUI3IZZwCDP03ktfJp2spukaXNuBzCsA7ANAJr5/VKmWW+QT2fYz1r1ex1Aahq4HesAnTw///Kb3ennX8vgvDnRcZxbB9iWhaDPv831ziD/doa3Bj4OHesAbAuAu/487eaLpN++GTc0EwC2Zim4k+e9tJ8vmmGv+CUgAILuBfTyJTOyF7BNAOrdZQHkfV3A9gBojfIVkgGwHQDq5/lqGTQB2AIAzUG+akZtAEoPYLXm/1POASg5gHb+sHQBKDWATv7QFLsgCECxAM7zfLMFAFAogHa+jgwAKCmA9dS/0HEAAAUCaObryjkAJQRQH60NQHFnAwEoDkB/ffXPRw0AygYgm6pgr5EkjfOFV//SQaCBIABFAWjO68SzBep/u/5fH4bZGQKgKABTv8Kf398xWni8NzODaABQJgDT9esvPi74NNxLZ84HAFAiAPdmAEsAaH8NQDGHxAEoBkA2v/2uL77oMztc6ANQGgAzSwD9+sInA2+bgOac0UIKQFkAzP76Dttp2l7sZEg3TdNs3mixD0BZAAzzQtIEoBwAWsXUv4hNIQCKANArCMAIgFIAqOdFpQVAGQC0CwPQBaAMALqFARgBUAYAw8IArH8eAMD6ATSKq//6PzYQgPUDaBcIoAfA5gPICgQwAKAELUBWYAAoy4GQkgQAAAB4GIBmmrXT+mMUL21lrRSARwVQz+4m/b00cPUb3dsd41G3AcCjAUiHs6c5G0WOAbNPztpfDgyMOgA8EoD2vHfxpnmRyeatNncBeBQAzblbNSEAtNe2QAjAAwAM5h7aCwBg5sjh6u8cA2B1AO35h/YCAMjWt08MwOoA5pz7aYQBMFzfPjEAqwMYzT/SXTyAxhr3iQFYHcBXylM8gHn/QgoAAAAAAAAAAAAAAAAAAAAAAAAAAAAAAAAAAAAAAAAAAAAAAAAAAAAAAAAAAAAAAAAAAAAAAAAAAAAAAAAAAAAAAAAAAAAAAAAAAAAAAAAAAAAAAAAAAAAAAAAAAAAAAAAAAAAAAAAAAAAAAAAAAAAAkQPoBAHQBGAjAPRny9AMc2HEnJsKEgCCA+jMVGGYhAHQnflyD4DwAGaubrq5MCQEgMbaegAAHnJrWOteFW7vdg9xbdz5va+eJwA8AoB7TfHd3W1BLo6cvrFuUAfgUQBM3d82uLu7LwiA+qS93gOurgbgYZdHp5+mAqPs85dCAEiS1qe744btJAHgsQAkSaNz3u9lrQkTYQAkSTM773ezZpIA8JgAZhuFUADWEgAAAAAAAAAAAAAAAAAAAAAAAAAAAAAAAAAAAAAAAAAAAOBhx8XXlxYAGw+gW2D9RwkAGw+gMSoOQBuAzQeQtAoT0E0AKAGApDkspv3vJACUAkCStAdrL/8wqycAlAVAktTTL+nMa83T6cwbOk7+/0ZSSAAoCsC/LQ1k33iLwUPf8QkAAAAAAAAAAAAAAAAAAAAAAAAAAAAAAAAAAAAAAAAAAAAAAAAAAAAAAAAAAAAAAAAAAAAAAAAAAAAAAAAAAAAAAMCD0wAgbgDJAh/10AnwcSAAPBaAOZeM3n+375z7YHsAbAuA9kxx+zN/Z1D858EA8FgAkuG/X/V5/xrKu3soAdgKAOkCH/bTnXMTNQBbAuBeJzD3l7s+CN4BABAMwNRHh33lqt/J60BHaQLAVgFI6tkdgd7Xa5v2Pt1DWk8A2DIAH6d67ayTfru09TTL2s0kWAAICWADAwAAAAAAAAAAAAAAAAAAAAAAAAAAAAAAAAAAAAAAAAAAAAAAAAAAAAAAAAAAAAAAAAAAAAAAAAAAAAAAAAAAAAAAAAAAAAAAAAAAAAAAAAAAAAAAAAAAAAAAAAAAAAAAAAAAAAAAAAAAAAAAAAAAAAAAAAAAAAAAAAAAAAAAAAAAAAAAAAAAAAAAAAAAAAAAAAAAAAAAAAAAAAAAAAAAAAAAAAAAAAAAAAAAAAAAAAAAAAAAAAAAAAAAAAAAAAAAAAAAAAAAAAAAAAAAAAAAAAAAAAAAAAAAAAAAAAAAAAAAAAAAAAAAAAAAAAAAAAAAAAAAAAAAwNYDeHkRaV4CIAAIAAIAAAAAAAAAAAAAAAAAAAAAAAAAAAAAAAAAAAAAAAAAAAAAAAAAAAAAAAAAAAAAAAAskau3i+UdANsI4O3FT68Xyy8/vgJg2wBcXf7y/+tF8+H1s3cAFJxq2Af87I/rZfL3D4EFVKMDUAn6fF++vl4uf/94FfQHrMQH4CTg433/8/WyeR10HHASIYCnAZ/v5Z9LA7j+ISSApxECOAz4fH9cvv7Xv74N+AMeRggg5DTg5xUA/Pf3kJOACAFUzjZ5CHB9/VfAQcBZJUYAtc1uAf4MCKAWJYD9cA/4+QoAfgs4BtiPEkDAPuDF38sD+M9VyB4gSgBH4fYBfl2+B7gM1wAcRQpgJ9wjvlh2IeDD8/fhfrqdSAEEHAZe/bBcJ/DhpzdBh4CRAgjYBLxbajfor+cB63/TAMQJIORq4NWr57/9tVj++PkiYPs/PqzEC6B6GvJIwP9eLZY3Ics/Pq1GDKDiZOB4rxIzgIBTwQ3NUSVuAJXjuOt/XIkdQPUk5vqfVKMHUNk9i7f+Z7sVACIWMFH/mAFUdk/jrP/pRP2jBhDpOOBL/x89gChng0fTTyByAJX9yAYCZ/sVAKZSrcVU/1q1AsD97EazJnS8O/vqAfi4MxBFK1Dbm/faAbjJzsGWTwhODnbmv3IAPht4UtvSdYHT2pOd+Aq9NIDbzmDv4HCrcrAX67aviIiIiIiIbFL+AcR9VPv0Exo9AAAAAElFTkSuQmCC;" parent="1" vertex="1">
          <mxGeometry x="80" y="700" width="100" height="100" as="geometry" />
        </mxCell>
        <mxCell id="ok_T_9QN9HczkOIdoNnu-2" value="" style="shape=image;verticalLabelPosition=bottom;labelBackgroundColor=#ffffff;verticalAlign=top;aspect=fixed;imageAspect=0;image=data:image/png,iVBORw0KGgoAAAANSUhEUgAAAQAAAAEACAYAAABccqhmAAA2N0lEQVR42u19CZhU1bVuNyCEvUlyv6vmXYf7RRNFTaJRE3GKcFFB5kkGmRvFETGJiUNkcIDEvGiMYszNe+9qCHt3M8mgAkIUZI7I5AAOiYkxEUWZeqieajjrfWvvfU7tqq5qeqjh1Kl1vu+ni67qqjrn7PXvNa+SEjp8dTiClYJkHRzBO4HgHZp7LQjeFSQ/FQS/BCQfBpLfCpLPAMGfAsErQLDVIPl2kGw/SP4RCH4QBK8GwetBsjAIHlPQj+vNc/iaj8zfbFfvge8l+VPqvfVnDAPBLwPJ/xME69rsd5S8AwjWCQTrAIKX0h2mg44EAUGB5x1BsI5pBAifPwmkErhJINhckLwcBNsGgh0AwWtB8hgs4gDPc4CVHGAFB1jGAZZygMUc1HMLOUAFByjnADINys1rFpq/WWzeY5l5z5XmM/A5wR2QikgOgGRbzXf6OUh2I0h2JUj+NRT+1MTFOoLgHZHsaAXQUXwCjwIg0wi8YCeDZNeCZPeAZH8AyXeBYFUguaOEcaURyCVGUF2BFiwGgkVBctzNERHz/yhIFlMkgULrQrLUjzVi5m+i6j3wvbz3xf+r5/RnLzTfZZn5bvgdJcPvVAOS7wXBFoBk9zqC9QXJ/yONJtNRgwiBjkAKPS91pFKDS1MQwhkg2Q1GxUaVu1LtwrjjLje7cIUn5FGlrksj3Ero1U5sgTlmR3d/B+2E9T4s/jne5yIZKKLB74QkEVWvrTDffblBhfr+1SD5Dkeyp0CwCSDYN1MQYCmg+SOJDOgo+J2eN9nlHclOBsGGgOCPgWC7QLJ6tYOuMDtphadeR0CyiNmFkwUPvJ/+gPWdWFyj0N89os+FO+rc7HOVrAEkXgP+BAj0K7CTU1zHjkQGdBSG0Aut3jcVen42SHYHSLYCJDusbGhXCMqV4MSUiu0JOwqQ2cnjwg8Fhrg2Isz56HOLeudabhHCYvU3R0HyF0Hw6SDZOWl8B0QGdPhO8Dsme+xBsHO1Hc9fU86yZcZO1up8zNjp0cQds2CFvYUw5xcnA8f4KMLKlKgw12iZem2jI9lmEOxekOxbSSZVh3Q+FDroyN1un7QIQbLTQbDbQfBXQbBGZfsu9XZ5oworZ51jqfABFvgWawmWT8GYPuXm2i1XZBB2JHsNBL8TBDu9iYlAzkM6cif4Kq7dwSKCziDYYJCsQjnwlplQmXSFXqm8ic45wYpZ6I/vbIxrQ1HjP4iHI1WuAlvs6GveOfG+NJ83QQcd7RH8jlAetz9Bsq+D4D9zBH9P2a9x9T6iVPu4igsJNj2h5aaC5wNxfQdGM3DDoIJ9AILPdAQ7M8lEIPOAjswJftL/rwDJF4BgIS9Mp2x6FonbtkmLmJA5zUBrBxF1zRd7JkIIBBMg2Q8SnK+C/AR0tMOxlyT4w0GwDZ6jyrXrhRWmS7TtCdnyGQjPkaiJt9zSwAT6Ctj1TkXcL5AqHEsHHakF31IfoaJbJ5C8DCTfrVTOpd7OHkna4Uno85V74PlXjAa21L1PKguxzCnvegKZBnQc97DVRZC8kyP5jSD5O8qhp5NWoia1NimNloTRH1qBS8jKVxBV90w5Y1VR01Qo5yfYkQNa8XS4gt/BzjQDwccrwV9m7Hsdvosmhe1I8H2deOQSAY94DlrB94NgE+0wrkNRg2JW9RPj+CD4AJBsh1dB5wp+5nPrCbnMQNSamyaC59V93QmSD7L9Aw6lGhexnS/YRY7gL6kF4qn6luALEvyCJwKdaKTDiEs8gsc+BxeTWVBU6n5c5QPJTgRVlcZjJnEnZkpfSfCDRgSJ91T7CJ73ahSeBsFOsjYEMgsCqvJ3tIjgJpDsUx1DdsN5LCnWTMIT8ExDnWG4XBEBdkG6OV0ImI6ACD4IfgEIvl6x/0K1EMJNw0kkLEXmIwirtaALkDY4gn2XiCBgtj48/xVsyPGgsgN1aChiSnDtvHMSjmJLN46XXMdUxECvjagj2MNQ3qUD5Q4Ew9bvodpqLfdufiTRJiThJ23A67sQNwsk241rx1pH5BsoiF1fsE6Wyj9L9adb6oX1qCKP0BQJTVcMESwxvQ0Fm21plJ1Iwvwr+KVuF1pHsO4g2JYEJ19hd9ch5IwIvGIuTxtwBNsKQncoggXY3pzyBvwc158MgtdYtj6p+4TWkYBIaGUWNiHDENaFkIPQb/a+1Co/NodwBHtW3SxdFRaJ31Ta9QltLjbSa6lCZxI6kj8HgnUxviYyCfKs9nfUJMDPBcHeNCp/vG89pe8S2p1EZEUKMFFMr7G3HMm/VUKlxnlT+S0vPx8NktVqRx/2paeGHIRsJhDxsFlrtSD4aGszoihBzu19yR7xeum7ThvJyNYnZDlSwCPejAPB5lhRJ9IGciH8jujWBQR/3qRxxrxpNKTyE3JWYMT0yDW1BvkyEJz8Ajlx9gl+mpqoszzJy0+pvIT8mAQRsxHtBsFPT85FoSODyT0g+cUg2KcmLBOOh/hI8Al5MQnc8HLYhJ0/Bcm/Z8xTIoHMCL/J5xf8OpC8TtdyqwGZQE04CfklgYRU4rDpM1AHkvcvoTqCjAi/W5Ax3htFTVl9BP/WE2jnoHZKTyihGoK2OvvUZN1So/5PU8xa7jpeyNlH8GNloWeO6qGnWhuYVuKOh6f04ZY6+3gpLNAXCyS7Pz5myxV+2vkJvk8ainrjzAT/mdFmiQRaEOYrBdHVCD+fZZo4Ol5mH6n9hEJpPyZVvwnHOKwfVGu6XI2PJxJIJ/xud1aQ/GHdyhkF303rJeEnFFqYUOWoxHAtO5I94mm4RAIpHX6u8M+OCz+P0eQdQgEPOI1vYsssTYAIoEmcv0OizU/CTwhQRaG7mWl/1s9MYhtFB0qsij6QbJqZ6eZ4/fpI+AmBSRhS1YSOWeN3GnOgY7ELv1vLP8GM2YZ4KS9l9xECZg64Wq0OEU4o6oxBT/gF76cSJ8qt8Aml9hICaw5wnSeg13s/u86lmBx+rvBfrFInK2zhpyQfQuCjA1GTLVgHkpnagSKpIozn9rPTVWHP4uRafhJ+QlFUEkbM2scCotNLiqGfQDy3H+v52S7jFQ1TOS+huAqIeLyASCcK7XL7DEIxjCxXDRSWW1V91MWHUKydh7GUWPe2WFYs4b5HEpt5kPATiriK0B1UqjfERwJpCrgef0fw0WbiSiyxkw8tCELRmgPxehclG7rRKASltZg7nRcEO091760woRAK9xEIdspw1MhGLUh+XkkQho9ggU+JHqeETTzfsmb0tXnnd4QGzm1zHxMI+YS9FttJAhGdKcjehAVduxR83YDj5vgL/pyx+9vs8U++2NEF3SCyoBvEBCcQ8gZcg7gW20kE9rDasPEHPFvQUQEv2UfyMhPqiMbjoG0X/pj5CYs7Ayw5AWBhF4CFXyIQ8oAueg3iWrTWZptIwA0P6j6XUVMUN7kgk4Tcnd8R7Bw1VLHCq/Br9Zw+W/ijC7i66Pj/jY+eBU/86DKYeVsvmEEg5AG49nANbnz0m1r4F3bRa7TNJGAVDlWYgaSCdS9YTQAk2+pN6W2j3Z8g/Iu6wF+ePgUmjhsI3752Mpzdewqcc3UZgZA34BrEtTh+7CD44OlT1Bq1SaDN1YMoM1pz3lqoqb6zvXh/u9J8jWq18Evw4W//A3oOHgPnXl0GPfqPh0v7j4MeBEIeodfgeDjvmjLoOWiMWqO4Vj1Ttb1dhvUw0lklhdBm3Er26eGdfOKwzrZ7/cu7ws2T+inWvWzAOPh+v/FJmEAg5BCJ6w/XJK5NXKO4VtsVFRAJk4fcjbBHQSQJof0Pku82SQ2R9ib7uLv/e/NOTSH0JPgEfxHB964bD+89daqlBbSzfBhlaIkZPbawW6nvd39HsIeM2hLJRLIPhljQy/qnud3h/D6T4BISfoJPSQDXJq7RdXO7qzWr1m5megiYVGH+oJ1c57+efoJfEM/yU7ZMuzv7uATw8pxz4DvX2gRAC4/gLxLAtYlrFNdqZgiAaRmKDx2JOIJdYMuc34hgfYLXPwOpvi4BrCUCIBQdASSZAnpOxnq/pfu6Xv+bPeEXmavway0BoA1Gi5GQDTS/trJGAFamoBsa5FN94RCMz+/jJ4Jgn+nhnW1L+MkEAbg3CH9e2GcsgZAxXNx3nLe2UhNBFgnAThBaaLoICXZi3msFXAZyBJuXkOufwSq/tmgAlw6YBL1G3EwgZABT1c8rh0zJpwZgmwJuA5GnjOx1zJfwG8cfuzjOUJlv8NEaAujRfyJ8u9dIuOWeuXCksgq+OHKMQGgXDh46ArX1DbDkpVfg/N6j4ZL+E/NJAHYnIZw4dFFJvoaMuKoHSLaqvem+mSSAb/UaCXf87FEIR6NQ3xgmENoFFH48XnxlM3wnvwRglQ1rh6Aj+EtGBkvzEvMHyQeaIQexbDX1bAsB3H7/o1Df0Ag1dfUKIQKhjaiqqVUEsHLtRh8QgCEBrQXEtOyxAXlrHgKCv6GzlEzsPwvtvdpMAI1h7yYiixMIbUF1SBPAC+t8RABuByHdPGRHnsJ+fIJR/aOmp1lW2nsRARCIANK1FmembwAfl9OwIFSwE0DyfWawQTSTYT8iAAIRQItnDUbNTM13QHbrlLOwH0h2k5p3rvL9mZPN5p5EAAQigGbbiEWULAp+Y07qBEB0PQEE228cEFmz/YkACEQALSkUYlEji/ugPIutwyzPf5mxOzKa8utXAlB/n+wdrq2DUKg2Efg76zXe35IQ5QT2dcfIT3ULUNOCe+VjArCHi0SMTE7Oqi/Amf+VUhB8T7Y9/34gAHthhNSCqYMQPheOQG0MoA40al3EAGobI/r1SAhEBHkjgnBDGJxwFGKNkbRwwvrn8e6PvwmAxUeOa5ncnV3Pv2Qj4sKfXds/XwSQLLi4S9TXN6oF1VjfAJVffA5H39oNRzashUOrlkH1yyuhZuOfoObtvRA6dAhqw1FNCOGIRwTJ70vIngZQV98Abx/6HNZ/8g/YdOBj2JgGrx34GLZ8+k9F7AWsAYA1XsyQABuetfZhINhrergHy8nun2sCsF+rBb9B7RSfV1fDqn99BPPe2AQHpl4Pldf3giNDr4Qjgy6DY4ihP4BjI3tDZdkQqHrkp1D90lIIHTyoiQC/R6g25WcQMksANWb3f3L/Lhi+8QWYsGUNjNuyugnGb1kNN2xeBTduWweHQyFF8IVLADw5L2CDXaiXwZx/fqVp7+32Ls/JWK9cEUDyrh9tjMCRUAgW/e09uPP1V2HM5lUwZstq2D19AtQN/QEcHXMtVI5GXKOABHBsRC9NCAMvhcopQ6Fa/F8IHTmiiCBZGyChzR4B/PbdPUrAb9q+DqZsW5sSk7a+DLe//oq6x/UFrQFYNTgol0pG+ZVGC+iQOQKQTOjQnz3VNxgEkKymo2248/NP4e6dG2HUppdg4tY1MHXLyzBm90ZY/PhMaBx8BRwZfS0cG3U1VCYDSWHMtXBsRE84NuASqLxtDNTs2KZJwDgKiQSyTwBj1A6/FsrSYOLWl+G2PweEAJJDgpItyEjXIMed7Sf5mSBZCMq9NkU5G+qZbQJIFv5IYxhe+MdfYfyWNUpVRDURF8yULWvghjfWwy8qfg/VuNOPutqDTQDKFHD/P6aPNg+G/QCqn5dQ6wA5B31EALcGhwDiEQEtoyFHsjPaXShkhf5meD3+vTTEwicAO2znqv1L//4+jN60CiZvfVmpivhTLZqtL8PE7evgtg0r4V+TBiWQQGUaKDIwmsKxAT2guuLZBE2AHINEAJkzA1g8JKhldUZGEoNAsM4g+fsm5TCW6/HJ2SYAdZON2v+nf/1dLRx3kXjCbwgAMf71V2Dz/bdAw5Ar4Sja//aOn5YEjJ9g0KVQvWaF5xMgLYAIIAtRAbdK8D2U3fbv/oINNj3+Y7l0/mWbAOykEVw0Hxw55DmHpiQLvyGAG7esgVG7NsL8eXOgYQj6Aa7xNIBjzRCBSwLHrv8vpRGE3t+v8gZQEyASIALIqBaQWCo8qM2lwq4HEQRbpHONWSSXtn8uCMCOHc95888mNJRC+A2mbF0D43a8Cg8unw9VZvc/Zjn+miMC9Xt0Dg66DKpmTNfhQTIDiACy4Atw0FTXtToL2+QMtLr9nA6SVXnOPxEsAqgxqv/mT/+phH9KMwvG8wlsXwfjX3sB9k8aCDUYDkQSGHSpEmwdBbimWW1A+QQGX66Sh5LDgwQigIxpAXq6cCVIfrrZ0Etbn/kn2DRv98+x8y+bBGDvvJgEMuetP8PYzatTq/6W8GNiCeKxfTvhg20boGbHVqjevQNq1qyAqrn3wbHhV8Gx4T3TkoDnFBx8udECIqQFEAFku0rwjrabAYJv0Jl/Xt4/BEUDcBfL+0cONXX4pRB+DAveuWM9vHHwAEQawtCIu7cDKrTn1gLUvL4FKqcMU2G/5jQBlTQ06hrtC4g6ni+AQASQQWdg1IwXX99K299T/89TLYiTRxYHRAPAHHAIR2HFR3+B0ZteSrlYXFJwF8sHRw6rv1G9BtGLX1ubUBmoVPr334XKiQNVVmBanwD6AjAsuFSQGUAEkM2+gUgAjY5g57Z4hoAbNwTB7jUDCU3ZLw8UASAaG8Lw1P7d3mJJpQXg7o/+gTUffwgQjkFVUjZfwuPqGiXQ1S8u0T4BdBSmcwYOvBSqfjXb0wCIAIgAMt4yDE13nRPw01YXCIFgm5IKfyBIBKDj/3UwY88WlfGXzgGINv8P39igFkpdkv8glU+htqERQkePQuXNI7U/IKUj8Bo4NvRKqLz7JpMP0EgEQASQDZgCIb6xpc6/UpMC3B0kb9De//yp/9kkABTmo6FamL5jvRLylGG/bWvVQsLqssaGxmYddnazkNpIDKp/OVNFB9Run8oPgOQw9XoIVVZCbUOYCIAIIBtVgiY1mDeAZGcfNzUYhG4pBJLfmVD4I4JHAHjT8eZjQQgW+6RaJFgHgMVAz37wtkoTrmlJZiGq8w7A4d89BkcGXgpHb+gTTxl28wbw/+gjmDRIaQtuTgAJMhFAVroFaVmeZjT7Ti2J/7/gEUB+VZisawDTXl/fDAGshTGbVqkFhQurpgUaABJAdTQG1b/4GYSv/S6EMPtvZG+VNnzUZA5iBKByRE84XDYUao4dIwIgAsimQ9AlgBXN9gnwhF+wk0HwIzqRwJ34E0wCQIfefbs2qRDflDQmAD53765NCZ1jmvUB1DVAZV09zF/yHKyaPR3+cstIODrqalU7gOnDNVhEhGQwoiccnD4Bqqurtd+ACIAIIDvRgJjp43EYJD8pbVKQlfs/zCv8yaP3PxdRgIaGRnjsnTe8LMB0uQDYRWb7Z5+otmBVtU2JwP0MfA5fs/2zf8GIHa/A2J0b4KbNq+GBlQvg2Wd+DhsfuB0+xq5Bo66GcJ8LofLBu6EaewxSIhARQNaSgpQpYGoD+JC0TUOt7L8nYIXy/ofzafvnKg8AO/6MUnkA65pNAvrpzo1wqCak+gWgoNcklRLj7/C5QzU16rUTcQFufRkmIYG8/qoqIsKft7z2Isx5/lkon3s3fPDSEqhX5cGUB0AEkM3UYB42Mv14s+FAmM9KQbBdprlgNP/2S3YzAdGxt/eLz9L6AGwSwFThB/dug39VVSriwIWGacQIfIy/+2dlJczeuy0xrRj/3lQS4uNJ29fB2DfWw/U7X4PdR76AaKP2LZAQEwFkNStQVfSyncfL/vsGSNaQz+KfXJoALhHcv3uzUvOntIAEbn/9VaU17D/8BXxRU6OAj/F3+FyTmgJDAi5UTcHmVTBj56aEcmDSAIgAstc63OsUVA+SndkkHBjv/MPGJbT9DrAGEDLDIbDr76qPP1RdgNAMOF5NAGoLmDqMv8MFhMDHo03vwCnHqSvAz8DXrv74Q/XZ1ST8RAC5aRrqzg4Y28QPEE//5U9pW4GHc934I18dgTAacKy2Fu5R0YDVxxVgNzyIjycaaMFe28KiotXqs/Az6wLUDKRJWnQrkImmKEQAxyEA9Omt4OAI/mTaVmEg2Otx+z/4GoBrAmBPgD9/9kmCGXA8EmjNc+7vp5iIAn5WzCQWBaUjUBMCwISoloAIIFfDQ5QG4Ai+Panzr2f/f001/6iwp40EXwOwG4Iu+Ou+hIhAc8LeUsS1Bp1VKP66LyGrMGjqvzofnI6Eo9KizvGRIQIkAmhBOFDn9lRhro+Sfcz9AanbBTmS9TUvcPyy++eqKaj7ExcCVgdmigSShR/fG6MGqT47MBpAOArVLy6FqkcfgKrfzIGqXz/cFE88AlWPPwjVT/8SQlVVGUmEIgJoSddglwRYH69VmJf/L9g9yv6Pt/4OPAEkmwJ15nfPvLdXCaxt25dtbYXwb12b4CtAp98z7+5R711nPitozUC9QqgYKOE/1vvbqvMRlj2nRL/vq9JoNTkpA6nQRAAt8gNETD7APSYfoJOnAYDgf/Tq//3ypXNBAPX1TUgAK/9WfPSBVw3oCnPC7r4tvWbgvtb9W2w6gu+ZLPyBJICoo3Z+FP7KsX11s9Qm6KP7IkwekrFiKCKAFmkBuj+AYPON1q+bhUIF6wCS7zEpwNFi0gDSebDRSYftwn71zhte6A/Lhl1vPqr1NtzoAb7GfS3+Lb5HzOr9F9S4fwIB/PphPR/RdEpO2RYNqyEnDkwkAHwPfD+su6irbQHqvL8hAmiRCRA1Mr47YW6gKgCSrNpzAMriIoBUJFBtFhN2DXrri4Pwf95/UzUGwbkBuLhGbnpRmQmIkZteUr/D5/A1+No3vziodn18j+qAC3+mCEALfz2EGmIQaoSWwf0bIoCWNQvVPgB0BJ5k9wG4wtv1fbT753o8eKoswZCJELjTgt86dBBe/uffoOLDd+G5D95WwMf4O3wOX+O+3l2UxZDtlzkNoBHqju6H+oMbof7zrVD/+ZY02Az1X2xXmgBpAK3SAtzW4ZfZhUBlVvuvoiaAVNpAjQHa8Fjwg3n/CFTtEe7/8TnXzq8pgl0/8wRQp3b/xg+fhuiu6yG6dxJE90xIgYkQ3T0OIm9OhdrQMQjVh4kAWq4FuG3CJtuZgHNhpfqlLyoA800AzfkGakwlIaImxf9DRSb4WSGAv/03RPeggN8MkTdvSono3jKIvD0NakOVRACt6w8QVrIu2BzbBCg3QwQiPmOs7BCAZW+mg21btiW9tb3IdZgwE6m8mSOA30F091i1w0fevDElonsnQ+TtO0gDaHuHIGlnA24z5YJRPyUBZa0a0CIBtXiawCKJPMXr86U5uPURutS54bjwvmuWCCCKwp4EIoD2VAZyUxrMt7rC3xUEOwALlVoQKzoNoLZSLSIN89g4lopVA8BCpcOhkBKOdHCfz7YGQASQ8YSgmJZ1/okjeNcSR/DTQfA6VS/sswhAdgkgrIQ/su/HEHnrVrWY0KbERYfeZQwxqQXptvuqCcHnR47kBPhZ+SAAV4AwjIk5DdjfwC15toGdlG/e/idvXkI9EUABmQBeq/A6EPw0jAD0UP3/4r3Ei4cAQseU8Cuv8t4yjd3jVIhJE0C8VVdlTQgOHj6cE1TmmQDm7d+tchvskmcbmO+AbdKQBA4TARSYBuCFArHn5yVIAMNgkaf+Fx8BvH2H9ii73uU9E1WcOR0BZHv3bzMBJDkvW4P0cfR1aQemIAncliRARAAFQwAxI/NDkQBuNVNEo8VHAJVK7Y8TwNQAEUBdC5G5VFoigAIxAYSeHOxIfguGAGf4NQcgJxoALrLd47QZoBJMRkP9wU0pCKAmhyZATasJIJQQ3YjodNqWIIOptEQABeEEdJSsa5l/IN4GLD4KvIiiALXK4afSSt0U04OboLb6gBIiOwpQU1unBBN35+yiRn1W2zWACDR8uhYa//okNP7t90qYmuK/ofFvz0Dj3/8f1NZWq/RbIoCi0QDAbQ8Ggj2JWYAV1hiwotAAEvIAUhaYRAovD8AWoL8+CdGdQyG6Z7wSpNQYDdG9UzIqQEQABaIBCJMMJFg5VgKu8WsdQG4yAVOVnhZgJmCCAP1eCX/krVtMNl1ToPBnOpWWCKAgMgEda2z4ajQBtpuxQdFiMQGSC32qk5Aql7+wCCA/AkQEUCAmQHxQyDbUAPZbYcDi8AFYNxyr+bA/v1vZh48bknrUFZwJQARABNA8AagwoCPZPgwDfqRSA+PJQEWjAWAF35ZP/wmvHfgYNhps+OQfasSXSwKF5QQkAiACaBFUOrAj+d+RAA7qTkD+s/+zSQBY7IJZbJjsgtOBcWAHZrdhBhySQPLUHr+HAYkAiABa5QfQ3b8OlqhWYOWec6CICKBB3fzbX39FZbVNMc08kQRQE0BzIJEACiERiAiACKCFkQBd+1NVogcGFi8BYDqrSwDu6C4iACKAgOcBuPUAdSVqDqD0ZyVgtgkATQAsaMFdf5IpckFzAH0CTU0AnxcDEQEQAbQuFIg/G0s8778oTg0AS1qRBFATQHMAfQLoGIxZ47sKohyYCIAIoLUEIFisaAnA/Wk3t3AfY3SA8gCIAIqEAIrPBEieB5iIxibCR3kARADBNQGK1Al4vF2dNAAigOJwAhZpGLDZOfZEAEQAxRMGLL5EoAThSp5XH3OaDKskE4AIIMCJQEWaCoypvlVVakY9zqpXM+sR/3sW1Ly9R425trUBXAiHKyvhSJaBn4GfRRoAEUC2U4FBpQIXYTGQ+h0+f+SIGlOtZtUPukyjz4VQ86dVgLc9FErsCPTZ4UNZzwHAz6BUYCKALPsA3J6AqhhouzcWvNgI4OhRNaNezaq/oY/CseFXQc2GtSkIgDIBiQCCVQ7smHLg1cXWECT4BNC+hiDPvLsHxm5eDVO3r1NC1BTrvLkBKQngN3Pg2ODLoXJsX00CTdBHX/PJQ9IQQH6+f9F0BRamIYjgq3AwiDUXkDlkAgTABGhnS7An9u2EwRtWKiHCnTQV3LkBei5AY5wAYgBVjz4Ax3p/W5EAagIpgdd8ZG91D5oQQJ6+f9F0BbbnA3pNQUXxNAUNrhOwfU1BEdgHYc3HHyohwp30t2mAw0NwghCOEauzQ6bhKFS/uFSRAGoCaA40AV7nxx9U1x7vQa3bgCXP37+ITADdFFSqpqBF2BY8gGHA9rYFtz8XhQh30pYgZdZkOKoItMm1TQU7L8MH37842oK7I8L5AyWOYHowCDoGRBH5AAKZCNS+wSDJvRJbgrTXKtV1Pc61zvf3LyICiOphQDgYRDIzGgzzAJhDqcD1ASGA1o8Ga+u51mbo7/P9/YttNJijRoMJ1sPPFYHZMgEIhJYgoJOB9IZvhoOepkYFlxfRdGACoWgJgJk6AFYHkp+KJkBXkOyATg30XzYgEQCBCCAracCfgORdS/AAwbapQQGYDOQzM4AIgEAEkOGpQGooCN9a4h6QkAwUPA2AQGgrXAJYGZzRYPEkoDgBsLkmLhj2WySgbQTwC6hraFQDNgiE9gDTshUBrA2KBmByACSb4xGAI9hkMyywsE2AAZoApj3wS3AAIBKNacQIhLahMRxRBLB6/Vb4Tu9RhU0Abg6ArgOYZGsAl1ttggqWABAX9hkLfW+4A+77+dNw79x5CvcRCG3EvXOeghm/fAYm//BBuKjP2LTrroB8AK4mcJlNACeDYFWqS4gmAKcQCeB71433SODcq0YQCBnBOVeNUOq/u8bcdVZgBOBYnYCqQLKT4gSwgHUAwXd7Y8J9pAW0VgNwb06PAZMIhIwBVf/Ugl9IBMCjpvfHbhCsVNv/knUwkYA/wnL/RQJcAnjZJgDDwgSCX4BrsgBMgIiSccnmG5nvgP90MmbAPaZEMOJLDWDuOXB+nzLo0X+CYmMCwW/AtYlr1LcagGARLeP8HkMAnVDwO5hIQB+vO7APCWD1w2dD96tGw3evvh4u6D0SzicQfARck7g2u181Rq1VnxKA8gE4kvdRBCCVBqBtAUewryU4An1SGhxZwAGWdIEXZp0Jp150HZzV41r4xiV9CATfAdfmKRddBytnnanWrFq7PhN+EKwSnf5G5ktL7AMk/7NJE4z6JSHII4DZZ8JpF/eDs3r0gW/26Esg+A64Nk+9uJ//CEBp9LoRKAi2vST5AME6aoegaQ+mugNxHxJAfzjrUiIAgj9x9qV91Bp9wZ8aQNi0/ntSb/Za5kvs/4Bk4zRL+FADmHUmnHJhX/jmJdfAmd+/lkDwHXBtnnKhb02AmNHubzDafgIBlJqf31DDQt1ZgT5wBkbxIi7uDKseOgu+eeX18J1eQ+HbPYcRCL4Drk1co7hWYUlnvXb9kP0X7wFQ70h2pi3ziabAfFYKgu3ySoN9Fga8oG+ZyvenkBPBl2HAARPh/L5l8PJcv4UBjf0v2c6SdIerEoBkv9a2AvNFZWCqRCBKPCH4ET5NBIrb/5I9buL/HdM6AkGwoSZdMOaHuoB0qcC04DKQvWalTxPaey19SQCO3QQUBBvSxAFoEUCp+XkSCHbYxAzz3im4tbUAhOMjVU5783nuhOPDjwRghF8n/xx2BD/RaACl6cwAlwRW6g5BLFJoxUCElgn/xX3HKVzUR/8kEggiARgZ1rK8Qst4t9L0fgC3LkCyabptEI/k2wwgAsic4NvC/4PhU6H/5B9Dv4k/giuG3EgkEDwC0OW/WNynCeAOI9ud0hKAY0IDjmRng+QNXqtwQQQQpJ3/qhE3w5jps2HsDx9SGDVtJlw+eAqRQKAIwGzcOqTf4Eh+tq3lH/dwJN9oWgdFyQQIDlDIB5bd7Qk+Ah/3HX/XcTreEArOBBBu+y/2WklLDzdEoMqDl7vlwTxvZgARQK4IYDoRQHAIwKj/Xv3/T5pk/6UnADcawM9TNQH2GxIBBMMEGD41wQQYeccMMgECRQBWFq9gjSDZOWmz/5olA8nX68nB+TMD7ESg8xMIgBZpu5yAw6ZC/0k/gn4TfwiXDyHhb6/wuwRwvn98AFEz9fvVktYeVnHQtPjAkPxEA6KCAyzqAm88fgZc2HeiJfxEAu0OA/YZp9R+Ev72C78LXKM7HjtDrVm1dvPt/Zf8DjvRr4V+AC8p6HTVQbQif8VBjrqIDOrnfxkGXT8CLugzCXr0Hwffu24CkQAlAvlC+HEt4prEtTloxAion/8VtWYdkbfaf7f7byUO/22V9z8+LIR3MFrAQjNKKJKPcCBeRFVVtUibAedcXQYXXzcBLu0/LskcCBqCvVMGBbgGcS3imsS1uQbV/0W6EtDJnwbgjv+q8Jp/tvZw4mbAYNMjIJYfM0AzaQwv5sIusGjm+erCd+89Bc7vM0mpXEEDLqag5crjOQXxXuEaxLWIWsDCmReoNYpr1dVcc7776+k/MdPif1Da4p+WmwNdO4Ng7+k3zP34cPdCeiSwqDN8MO9UmHvnlTBqzBDoPWQ09Bw0JjDoNXgMXDYAdxcsMZ0QCOC54DnhuQXpXuHaGzV6iFqL7887Va1NW/jzZAJEjay+BwtY55L2HHFnIJ+hZwao2oCchwTtC6rMgYVd1MUOL+gGoT98NRCoeU6jYf6XYeaPhkPPMT+G/uOnwXXjphc08BzwXGb8aLjy47jnGZT7hmsQ1yKuybjanwfhF17lX8TI6gO2Jt9GAjDFQZKfAZKF4p2C8uMLcC9uzCUCVLHKuwYITC2kh38yDHrd8BMYOHE69J9wV0EDzwHPBc9JEXd5wO6ZZGotxizBz5vtH+/8EwLBzrAd+m0+HOk5AxckhATzTALu46Ag5po45V3hobsNAUy4E/qNn17QwHPodcPd8ODdw9W5uecZtPuXX+Fn8cw/XfizwOv7394D3NFhkl2pewR4acG+miJc6PAWj00AE+8MgAZwpzqXhwwB5HGHDDJc55/p/c+vsCN5GSCBbm5ewGumuCBqDRykG5AFAug55m4YEAANAM+h15i74cEfDyMCyN7QTy2TOvNvvRH+0pJMHV6/QMGGew1DBWkBmSYAZQJUdIHHZ1wP/W6aDSNvvQ9G3HJ/QQPPAc/lsRkjAcrtEBkhs22/3MEffFi7Q3/HIYM98elBbuYR3YjMEUBnePrhUTD4jp/DuLtmwZi7Zhc08BzwXOY9NBqgvDMRQOZr/rUs6q6/u0uydXhlwpKXoarhxKcIEwFkmACeemgUDLp9LoydPhNG3zmroIHngOfy1IOjiACyEfrTDsCIKdqbnNXd3xDACSDZPtM5OGqynYgEMkgA8ywCwLLdQgaew2AkgIeIALJi+6MMLlZNP/dBebdOJdk8rNbhNyb0DBREAEQARAB5qvl38/6ntLrqrx2hwRMAGWex3TKMfAFEAEQAufX8c5P2y9+BP/JOJbk4vEnCgo83YYcoaQFEAEQAeYj7IwEsVf64cWkHfmSZDN5IzAsgLYAIgAgg+/X+CQ0/d5Tk+oj7AvgAb4yYpIhAe1OZY6KbipUHMQrwpIoCdFHn6L9U2kKz/e2SXzagxQ0/M+wHcJuHvqRMAVUjQNmBKQU/RUWjWzySXFgCC0/w8gDG3hUADeCumSYPYJQ6tybFQFZxVwIR0LpJv/t7DT/4ixkp+GlnjcBFltA7lBvQkp4GXVRlHJb+euXAf/gqVD/3b9D4Rw6PzxoNA299BMZMe8Br3V2owHPAc8FzapzP1TnWWOW0eA10eXeX/NfSF0q+vyaBmCPZhW3u+JNRU0DyeaYGORxPUKCbliz8aodXDU6/Dvff8l+qx2HPwWMSGmXg48sHjodL+k9S8+b9MPe+XVDnMEmdU/J54k+8Bngtdj7+dU2M1rUiEkgZ9w+bXv9PZj3ppwWlwmaUGD8RBP8MFrqtw8gUSG5pphZzxZfgdz/9vmodjf3jvtuHWoLhNcBrgdcErw1eIydfLbX8nvKLHbkWqv9/6gj27/Y4v7wdVqHQVBMWjCSqKqQBuE1NsZ/hWb1vVD0Nj9/UtDiagrpNNfExXhu8Rnluqunngp+I8bfdlPfdP00nYXeQCDkEbROgvCtUP/dV6DtsJHy370ToYVpJU1tzq612v/Hq2uA1wmvllg6T48+TITff/9USvx3gtRDnFyQKPyv63AC9+3eB7b86Uy1wmmzU/GQdNAvwWqnBGgtI9VcyJLzMP0y9P99o3B18RgJeG/HZVgNRIgBrtiGNNmvZaK21fpmu6xvHnxnyKfjsnOX7t5kIynkpCL5LZSm52kARRwU8AphLw01bOlyTCCDBfI4YWdoFC75aWuLnw2sjLlgPa+d3ipkEiACIANqe7mvJjmCX+NLx10zjkFkmXmmbAk6xEsC6ud2VD+Cy/uOU17sHIQF4TfDaYFgQr1URE4CTQvWflZd03wyQwRYdtihef4AmgBNg1SPnwhm9boLzrimDc68uU7FvQhx4TfDanNHzJlj18LnqmhUlAcRb7Lkhvy0lhXa4/chBsO4gechMKo0VIwm4Mw3f+s1/wr239IaZt/WCGYSUwGuD1wivlTtjr0jr/GNaZngNylDGevznmAQ6mZ+TtBPD7iRcTCTAvFwAlfO+8EuEZtHFygFgxbbzu7U0us5fsEk6v4Z1KinEI54fwJ7V/gBu1woUBQkkFwIRjo8irAVwmuT6C/4/dtFdYRKAWzIsGU4Y3qsbGBRXlmBQR5nlatRWkbX3jhgZ2QuSd7bncxYuCcQbiZ6nhhZWUAchAqFpqi+LGl9ZCCQ71/cJP23zB7BRpotJLF7hRPUChGIf7MHiHX4kG2mEv1NJkA4rVfhh4w+IWA5BIgFCMQp/vLX3ctUF6eFA7fzNOAefN46OcOKEE1oYhCJ1+kn2fEnQD8dUMMEC3hkk22kSHYouMkAg4feEXyfK7QLxpS6+rPLLYqrwaSD4ATPYIEKaAKF4GnuYNa/9YQdAstOKQvWPtxLTDg4Q/GIQvNa0EoumYEgCIYDCz6K6tRevBckvLirhTyYBR/LroBwz5SwSoJHjhMCm+bKotd6vC6THvxVNRY0mwMabASMmREjtxAiBFH69tvVaH2+iYsUp/CkShe4wjQ8c70JRjgAhOI09Ykqz1eO8phVkeW8OqgfvM52FY3rcGGkChEAk+sRUhZ+Oet1f8Dn+2SGBbu6osdlq7JEwF418AoTC7uen17Ee5eX29CsliW9qCpS6FwYkf1hfMLx4CX0EiAgIBSD41s6P0Gv5EZMDU+oUeoFPFnMESkF2dTWBWaYPuuUTIBIgFEyST0z5sLRJOzu+vmn3bwEJuJOH2X3GMRivICQSIPh953fX6tIEm5+Ev1XmgFGTVHRgsRs3tcqIyS9A8JOzTyTF+XWobxrt/BmJDvDx6qIupC7DBF/W88fTeyv0ZuUINqGkEHv5+ZAE3NqB60CwWlMzHSYSIPimj580RW26rqUWBO9Hcf7M+gXc2oGLHMkOGMdK2FK7iAQI+enko9eeqerjB7C+hTL8spE2LLwuw6eB5Du9oSPC7qpC2gAhp84+r5kHSLbLEfx0Ev5cpA2X884g+FLTVMSJRwionJiQQ2cfhvqWK3t/mVXPT8KfC5+AYdqHlN1V0aTbMJEAIXv2vjTOvsVK+B9J3qDoyFF0wJDASNVteKnpsCLsoaSkDRAymNzj2vu6oCcEQjfwLCmGTj4+dQ521P4Bdq6aO6CbjUa9GgKVRUjaAKEdu76w03p51KyxN0G4rbvJ059n56DXXQiHj/yPYucKr+swUFkxoZ1lvHq4bYWb2ceeBcE6k73vQ+egeTwRBK8xocKIJfzkGyC0vF133IyMmLUUAsEnk73vX3Og1LXDHMm7g+CbjbpmZQ+SNkBoxa6PP3WIbytIPaXXkayDQ+W8vtYGOlmkMFPd1KUeCZCDkJA6qccL76nHEVjC9XRiwWd55qZpYUeH76MEzIoS8Eu8xKFyzzdAZgGhqYffDSXrXX83SNbDEn7y8hdqlAAq/q1U9Rdw7TmhfAOxJu2aCUWWyuv16I/F14YigdmwoGsH8vIHiASMNnA+SP6qutELk/IGBJUYF52TT6v9YbUWtPCvB8EvSLV26AgSEQh+Iwj+qeckRNa3owVEBAH37iep+4J/5gg+1TIhSfCDmTNgZRAK9u8g2JOq3Vi8/2DUmtdO/oHA2fmmbsTr0MtijuDzQPATrc2BbP3gOwltbYBdCIK/oGoKdLQgqpGgJhIRFOSOb1eKmvu6xHTrEWyVI/hFqdYEHcURLixNTCDiA0CwHYoEFntx4KgVLiQiKLyuvFrw3UGcetffAZINjGuFrCPmkJBEFKtZIFkHu087CH4DSP62WiwuESSYBlRfUABefVfV14KvTbx9jhnHVeI26aQCHjrsncBbHOXdOoLkZSD5O4oIllimgbfQyEfgqx3fS+axVH2dwrvfkewmqOh6ghXTJ3WfjhZECyq+3MmRfBIItttaULoLTIKNSeZB3lpyeRoZ0/dkqfblOILvBcnKQMYFn8J6dLTCUZgYCgLBh4Fk61U24TJvvHNEjzQ32oBglGKck93e7cyjIjcR756oKlC2AQQfgRN4LH8PCT4d7Y8YGCK4HCT/o6oOW+b6CXjMZBcmaQVEBhkP47kaGF7zxV4cH5tzCBD8yuZInA462uEs5AneYhDs6yD5z0Dwdz1Hk9uHQHhhRDIRMtN40zERGV2X7xKvZO+DZDNBsDO9+7KgWymp+nRk0VnIO9jeY1jAO2NYCSQrB8Er1eJ83ptkFDEdikgzaPVO7zr0TMbeUs+bXwWSLwLJBkO5bsxhNLMOlMRDRy6dhaVN/QTsdJDsdhDsFZC8UamnSy1/gdYOYnEbNqkGvdg9+G5RjjR2/VK3Mo83guRo20/Da5zstKVx23Tk3WGYPAIKJD8HBPuJWbj1aveKmwkxNUnGSzSyw4pB1g68givbmRfVk55YzFPvl7lCzzaBYD8Fyc5rooWRfU+H/7SCxOxC6/dnKc1A8uUg+CFYxAFWmPyCcteJiITAkiIKBV2T4DRpwKJ3+ag6V/xZbq7BCs+ZehgkWwmC3wmSd0/lh6FuPHQUSvQAJxx3SvH7kxzBhoDgv1KNSiSrV4vfJYQKzwY2JgMKDLNDjH40HZyEzjrxDjtRY/boCU4VlsAvUa+vB8F2guRPgOBDQfCTUkVhaLIuHUHQDDqlslVBYjSBjQHJngTJtoFklUpQVhj7d7FnNoClLkfi7c+9mLiTctfNfP18ormiG6tEje1utBjznd0w3XKP2KpB8NdBcjzXcSDYN1L5VrD1ljseng46AqcZqAKUNDYsSHaSI9m1INg9IPhzIPkuRQroPMRdc6WxkZeYpiblHjmYcmYlhGGrmClqetrHrMpGs0vbSTXW76UilphJfY6aHdx93/jcBXdk+xLznVa6rbPV+1Q5ErPx+AKQ/B6QrC9I/r/SOFQ7GpDQ01F0DkQVTUgXu8aMNpD8RBCsB0g2ASSbA5JJkHwrCP4JSFarhHSRCT+uNNrDMiOMKJyLjKBWWISRCuXmNQvN3yyxwm8rzHs/b57T2ked/g58q/lOc0HwMhD8ChDsZEemLrbRTlNG3ns66EhDCBjT7nS8ajVHsK6OZKeA4N93JBsKkt8Ckj+AjU4czEuQfLUxK/aB5H8HwQ+C5NUgOQpuowlJxtRj/J1UKvpB9VpVPce2geCrQOB7YfMU/oD+DPVZl4LEsCfvehzzp4MjGar0HUit99/x/wHZ+ORQbrGNywAAAABJRU5ErkJggg==;" parent="1" vertex="1">
          <mxGeometry x="70" y="457" width="126" height="126" as="geometry" />
        </mxCell>
        <mxCell id="ok_T_9QN9HczkOIdoNnu-3" value="Administrateur&lt;br&gt;" style="text;html=1;strokeColor=none;fillColor=none;align=center;verticalAlign=middle;whiteSpace=wrap;rounded=0;" parent="1" vertex="1">
          <mxGeometry x="113" y="585" width="40" height="20" as="geometry" />
        </mxCell>
        <mxCell id="ok_T_9QN9HczkOIdoNnu-4" value="Client&lt;br&gt;" style="text;html=1;strokeColor=none;fillColor=none;align=center;verticalAlign=middle;whiteSpace=wrap;rounded=0;" parent="1" vertex="1">
          <mxGeometry x="110" y="810" width="40" height="20" as="geometry" />
        </mxCell>
        <mxCell id="ok_T_9QN9HczkOIdoNnu-5" value="" style="shape=flexArrow;endArrow=classic;html=1;" parent="1" edge="1">
          <mxGeometry width="50" height="50" relative="1" as="geometry">
            <mxPoint x="210" y="520" as="sourcePoint" />
            <mxPoint x="273" y="520" as="targetPoint" />
          </mxGeometry>
        </mxCell>
        <mxCell id="ok_T_9QN9HczkOIdoNnu-6" value="" style="shape=flexArrow;endArrow=classic;html=1;" parent="1" edge="1">
          <mxGeometry width="50" height="50" relative="1" as="geometry">
            <mxPoint x="213" y="760" as="sourcePoint" />
            <mxPoint x="276" y="760" as="targetPoint" />
            <Array as="points">
              <mxPoint x="233" y="760.5" />
            </Array>
          </mxGeometry>
        </mxCell>
        <mxCell id="ok_T_9QN9HczkOIdoNnu-7" value="Back-office" style="shape=ext;double=1;rounded=1;whiteSpace=wrap;html=1;fillColor=#dae8fc;strokeColor=#6c8ebf;" parent="1" vertex="1">
          <mxGeometry x="290" y="480" width="120" height="80" as="geometry" />
        </mxCell>
        <mxCell id="ok_T_9QN9HczkOIdoNnu-8" value="Mobile" style="shape=ext;double=1;rounded=1;whiteSpace=wrap;html=1;fillColor=#dae8fc;strokeColor=#6c8ebf;" parent="1" vertex="1">
          <mxGeometry x="293.5" y="720" width="120" height="80" as="geometry" />
        </mxCell>
        <mxCell id="ok_T_9QN9HczkOIdoNnu-14" value="Service 1" style="rounded=1;whiteSpace=wrap;html=1;fillColor=#f8cecc;strokeColor=#b85450;" parent="1" vertex="1">
          <mxGeometry x="492.5" y="480" width="120" height="60" as="geometry" />
        </mxCell>
        <mxCell id="ok_T_9QN9HczkOIdoNnu-15" value="&lt;span&gt;Service 3&lt;/span&gt;" style="rounded=1;whiteSpace=wrap;html=1;fillColor=#f8cecc;strokeColor=#b85450;" parent="1" vertex="1">
          <mxGeometry x="492.5" y="630" width="120" height="60" as="geometry" />
        </mxCell>
        <mxCell id="ok_T_9QN9HczkOIdoNnu-16" value="&lt;span&gt;Service 2&lt;/span&gt;" style="rounded=1;whiteSpace=wrap;html=1;fillColor=#f8cecc;strokeColor=#b85450;" parent="1" vertex="1">
          <mxGeometry x="492.5" y="555" width="120" height="60" as="geometry" />
        </mxCell>
        <mxCell id="ok_T_9QN9HczkOIdoNnu-17" value="&lt;span&gt;Service X&lt;/span&gt;" style="rounded=1;whiteSpace=wrap;html=1;fillColor=#f8cecc;strokeColor=#b85450;" parent="1" vertex="1">
          <mxGeometry x="490" y="740" width="120" height="60" as="geometry" />
        </mxCell>
        <mxCell id="ok_T_9QN9HczkOIdoNnu-18" value="" style="endArrow=none;dashed=1;html=1;dashPattern=1 3;strokeWidth=2;" parent="1" edge="1">
          <mxGeometry width="50" height="50" relative="1" as="geometry">
            <mxPoint x="552" y="730" as="sourcePoint" />
            <mxPoint x="552" y="700" as="targetPoint" />
          </mxGeometry>
        </mxCell>
        <mxCell id="ok_T_9QN9HczkOIdoNnu-19" value="&lt;font style=&quot;font-size: 19px&quot;&gt;Serveur d&#39;application&lt;/font&gt;" style="text;strokeColor=none;fillColor=none;html=1;fontSize=24;fontStyle=1;verticalAlign=middle;align=center;" parent="1" vertex="1">
          <mxGeometry x="490" y="420" width="125" height="40" as="geometry" />
        </mxCell>
        <mxCell id="ok_T_9QN9HczkOIdoNnu-20" value="" style="html=1;shadow=0;dashed=0;align=center;verticalAlign=middle;shape=mxgraph.arrows2.arrow;dy=0.6;dx=40;notch=0;" parent="1" vertex="1">
          <mxGeometry x="640" y="595" width="90" height="70" as="geometry" />
        </mxCell>
        <mxCell id="ok_T_9QN9HczkOIdoNnu-21" value="Base de données" style="shape=datastore;whiteSpace=wrap;html=1;fillColor=#ffe6cc;strokeColor=#d79b00;" parent="1" vertex="1">
          <mxGeometry x="750" y="576" width="70" height="100" as="geometry" />
        </mxCell>
        <mxCell id="xXDEBDWGRcH-9UQL-giK-3" value="Microservices" style="text;html=1;strokeColor=none;fillColor=none;align=center;verticalAlign=middle;whiteSpace=wrap;rounded=0;" vertex="1" parent="1">
          <mxGeometry x="532.5" y="810" width="40" height="20" as="geometry" />
        </mxCell>
      </root>
    </mxGraphModel>
  </diagram>
</mxfile>
